<?xml version="1.0" encoding="utf-8"?>
<!-- Generator: Adobe Illustrator 24.0.1, SVG Export Plug-In . SVG Version: 6.00 Build 0)  -->
<svg version="1.1" id="Layer_1" xmlns:serif="http://www.serif.com/"
	 xmlns="http://www.w3.org/2000/svg" xmlns:xlink="http://www.w3.org/1999/xlink" x="0px" y="0px" viewBox="0 0 950 796.6"
	 style="enable-background:new 0 0 950 796.6;" xml:space="preserve">
<style type="text/css">
	.st0{fill-rule:evenodd;clip-rule:evenodd;fill:url(#SVGID_1_);}
	.st1{fill-rule:evenodd;clip-rule:evenodd;fill:#FFFFFF;}
	.st2{fill-rule:evenodd;clip-rule:evenodd;fill:#64FFDA;}
	.st3{fill-rule:evenodd;clip-rule:evenodd;fill:#64FFDA;fill-opacity:0.7;}
	.st4{fill-rule:evenodd;clip-rule:evenodd;fill:#64FFDA;fill-opacity:0.6;}
	.st5{fill-rule:evenodd;clip-rule:evenodd;fill:#3A5075;fill-opacity:0.5;}
	.st6{fill-rule:evenodd;clip-rule:evenodd;fill:#3A5075;fill-opacity:0.4;}
	.st7{fill-rule:evenodd;clip-rule:evenodd;fill:#3A5075;fill-opacity:0.3;}
	.st8{fill-rule:evenodd;clip-rule:evenodd;fill:#D90368;}
	.st9{fill-rule:evenodd;clip-rule:evenodd;fill:#3A5075;}
	.st10{fill-rule:evenodd;clip-rule:evenodd;fill:#3A5075;fill-opacity:0.7;}
	.st11{fill-rule:evenodd;clip-rule:evenodd;fill:#3A5075;fill-opacity:0.6;}
	.st12{fill-rule:evenodd;clip-rule:evenodd;fill:url(#SVGID_2_);}
	.st13{fill-rule:evenodd;clip-rule:evenodd;fill:#F59E0B;}
	.st14{fill-rule:evenodd;clip-rule:evenodd;fill:#F59E11;}
	.st15{fill-rule:evenodd;clip-rule:evenodd;fill:#F59E16;}
	.st16{fill:url(#SVGID_3_);}
	.st17{fill:#FFFFFF;}
	.st18{fill-rule:evenodd;clip-rule:evenodd;fill:#F5F5F5;}
	.st19{fill-rule:evenodd;clip-rule:evenodd;fill:#E0E0E0;fill-opacity:0.8;}
	.st20{fill-rule:evenodd;clip-rule:evenodd;fill:#FF5252;}
	.st21{fill-rule:evenodd;clip-rule:evenodd;fill:#FFFF00;}
	.st22{fill-rule:evenodd;clip-rule:evenodd;fill:#69F0AE;}
	.st23{fill:url(#SVGID_4_);}
	.st24{fill:#F5F5F5;}
	.st25{fill-rule:evenodd;clip-rule:evenodd;fill:#E0E0E0;}
	.st26{fill:none;stroke:#F59E16;stroke-width:2;stroke-miterlimit:10;stroke-dasharray:12,12;}
	.st27{fill:none;stroke:#F59E18;stroke-width:2;stroke-miterlimit:10;stroke-dasharray:12,12;}
	.st28{fill:none;stroke:#F59E0B;stroke-width:2;stroke-miterlimit:10;stroke-dasharray:12,12;}
	.st29{fill:none;stroke:#F59E11;stroke-width:2;stroke-miterlimit:10;stroke-dasharray:12,12;}
	.st30{fill:#F59E0B;}
</style>
<linearGradient id="SVGID_1_" gradientUnits="userSpaceOnUse" x1="30.4789" y1="720.9359" x2="31.4788" y2="720.9359" gradientTransform="matrix(2.991951e-14 -488.6227 -488.6227 -2.991951e-14 352982.9688 15395.5801)">
	<stop  offset="0" style="stop-color:#808080;stop-opacity:0.2"/>
	<stop  offset="0.54" style="stop-color:#808080;stop-opacity:9.000000e-02"/>
	<stop  offset="1" style="stop-color:#808080;stop-opacity:8.000000e-02"/>
</linearGradient>
<rect x="498.4" y="14.3" class="st0" width="437.8" height="488.6"/>
<rect x="505.7" y="340.5" class="st1" width="423.3" height="151.7"/>
<rect x="540.4" y="376.5" class="st2" width="16.4" height="77.8"/>
<rect x="572.8" y="376.5" class="st3" width="16.4" height="77.8"/>
<rect x="605.2" y="376.5" class="st4" width="16.4" height="77.8"/>
<rect x="637.6" y="376.5" class="st5" width="16.4" height="77.8"/>
<rect x="670" y="376.5" class="st5" width="16.4" height="77.8"/>
<rect x="702.3" y="376.5" class="st6" width="16.4" height="77.8"/>
<rect x="734.7" y="376.5" class="st7" width="16.4" height="77.8"/>
<circle class="st8" cx="869.1" cy="414.9" r="39.6"/>
<rect x="505.7" y="182.9" class="st1" width="423.3" height="151.7"/>
<rect x="540.4" y="218.9" class="st9" width="16.4" height="77.8"/>
<rect x="572.8" y="218.9" class="st10" width="16.4" height="77.8"/>
<rect x="605.2" y="218.9" class="st11" width="16.4" height="77.8"/>
<rect x="637.6" y="218.9" class="st5" width="16.4" height="77.8"/>
<rect x="670" y="218.9" class="st5" width="16.4" height="77.8"/>
<rect x="702.3" y="218.9" class="st6" width="16.4" height="77.8"/>
<rect x="734.7" y="218.9" class="st7" width="16.4" height="77.8"/>
<circle class="st8" cx="869.1" cy="257.3" r="39.6"/>
<rect x="505.7" y="25.2" class="st1" width="423.3" height="151.7"/>
<rect x="540.4" y="61.2" class="st9" width="16.4" height="77.8"/>
<rect x="572.8" y="61.2" class="st10" width="16.4" height="77.8"/>
<rect x="605.2" y="61.2" class="st11" width="16.4" height="77.8"/>
<rect x="637.6" y="61.2" class="st5" width="16.4" height="77.8"/>
<rect x="670" y="61.2" class="st5" width="16.4" height="77.8"/>
<rect x="702.3" y="61.2" class="st6" width="16.4" height="77.8"/>
<rect x="734.7" y="61.2" class="st7" width="16.4" height="77.8"/>
<linearGradient id="SVGID_2_" gradientUnits="userSpaceOnUse" x1="32.7413" y1="723.2371" x2="33.7419" y2="723.2371" gradientTransform="matrix(5.225744e-15 -85.3428 -85.3428 -5.225744e-15 62592.1758 2936.5312)">
	<stop  offset="0" style="stop-color:#808080;stop-opacity:0.25"/>
	<stop  offset="0.54" style="stop-color:#808080;stop-opacity:0.12"/>
	<stop  offset="1" style="stop-color:#808080;stop-opacity:0.1"/>
</linearGradient>
<circle class="st12" cx="869.1" cy="99.6" r="42.7"/>
<circle class="st13" cx="869.1" cy="258.3" r="42.7"/>
<circle class="st14" cx="869.1" cy="416" r="42.7"/>
<circle class="st15" cx="869.1" cy="99.6" r="39.6"/>
<g transform="matrix(1,0,0,1,-167,-89.81)">
	
		<linearGradient id="SVGID_3_" gradientUnits="userSpaceOnUse" x1="531.5986" y1="810.8676" x2="532.5986" y2="810.8676" gradientTransform="matrix(2.393518e-14 -390.8918 -390.8918 -2.393518e-14 317470.4375 208642.3281)">
		<stop  offset="0" style="stop-color:#808080;stop-opacity:0.2"/>
		<stop  offset="0.54" style="stop-color:#808080;stop-opacity:9.000000e-02"/>
		<stop  offset="1" style="stop-color:#808080;stop-opacity:8.000000e-02"/>
	</linearGradient>
	<path class="st16" d="M801.9,844.8H216V470.7c0-9.2,7.6-16.8,16.8-16.8H785c9.2,0,16.8,7.6,16.8,16.8L801.9,844.8z"/>
</g>
<path class="st17" d="M73.9,371H610c9.2,0,16.8,7.6,16.8,16.8V755H57.1V387.8C57.1,378.6,64.7,371,73.9,371z"/>
<rect x="75.4" y="393.3" class="st18" width="533.1" height="349.6"/>
<rect x="77.5" y="410.3" class="st19" width="530.8" height="314.6"/>
<rect x="77.5" y="393.6" class="st18" width="530.8" height="16.7"/>
<circle class="st20" cx="88.8" cy="401.7" r="4"/>
<circle class="st21" cx="100" cy="401.7" r="4"/>
<circle class="st22" cx="111.1" cy="401.7" r="4"/>
<g transform="matrix(1,0,0,1,-167,-89.81)">
	
		<linearGradient id="SVGID_4_" gradientUnits="userSpaceOnUse" x1="534.6804" y1="814.0018" x2="535.6795" y2="814.0018" gradientTransform="matrix(3.893217e-15 -63.581 -63.581 -3.893217e-15 52264.4688 34866.9414)">
		<stop  offset="0" style="stop-color:#808080;stop-opacity:0.2"/>
		<stop  offset="0.54" style="stop-color:#808080;stop-opacity:9.000000e-02"/>
		<stop  offset="1" style="stop-color:#808080;stop-opacity:8.000000e-02"/>
	</linearGradient>
	<path class="st23" d="M818.3,869.9c-32.6,2.5-592.7,1.5-612.3,0c-25.7-12.4-25.2-60.3-25.2-60.3l256.9-1.7l0.9,14.6h110l4.3-12.9
		h284.7C837.4,809.6,843.1,853.6,818.3,869.9z"/>
</g>
<g transform="matrix(1,0,0,1,-167,-89.81)">
	<path class="st24" d="M833.3,813.5H554.1c1.4,1.6,2.1,3.6,2.1,5.7c0,4.7-3.8,8.5-8.5,8.5h-0.1H441.1H441c-4.7,0-8.5-3.8-8.5-8.5
		c0-2.1,0.8-4.1,2.1-5.7h-250c0,0-0.4,41.7,24.9,52.4c19.3,1.3,572.6,2.1,604.8,0C838.9,851.7,833.3,813.5,833.3,813.5z"/>
</g>
<circle class="st25" cx="75.6" cy="732.7" r="3.4"/>
<circle class="st25" cx="85.9" cy="732.7" r="3.4"/>
<circle class="st25" cx="96.3" cy="732.7" r="3.4"/>
<path class="st26" d="M268.4,340.7V120.2h182.1"/>
<path class="st27" d="M211.9,273.5V53.1H394"/>
<path class="st28" d="M776.4,522.8v172.6h-95.9"/>
<path class="st29" d="M834,561.1v172.6h-95.9"/>
<g>
	<path class="st30" d="M276.6,597.6h-45.5v-10.3l42.3-57.7h17.4v56.1h11.7v11.8h-11.7v18.2h-14.1V597.6z M277.3,585.7v-42.2
		l-29.7,42.2H277.3z"/>
	<path class="st30" d="M346.9,527c25.7,0,32.7,19.1,32.7,44c0,25.4-7,44.5-32.7,44.5s-32.7-19.1-32.7-44.5
		C314.2,546.1,321.3,527,346.9,527z M346.9,539.4c-16.7,0-18.6,15.3-18.6,31.6c0,17.1,1.9,32.1,18.6,32.1s18.6-15,18.6-32.1
		C365.6,554.7,363.7,539.4,346.9,539.4z"/>
	<path class="st30" d="M438.6,597.6h-45.5v-10.3l42.3-57.7h17.4v56.1h11.7v11.8h-11.7v18.2h-14.1V597.6z M439.3,585.7v-42.2
		l-29.7,42.2H439.3z"/>
</g>
</svg>
